<svg width="32" height="32" fill="none" xmlns="http://www.w3.org/2000/svg"><path d="M27.114 6.305a.82.82 0 0 0-.598-.252c-.115 0-.356.094-.723.28-.368.185-.758.392-1.168.623-.412.23-.899.438-1.46.624-.562.185-1.082.28-1.56.28-.443 0-.833-.085-1.169-.253-1.114-.522-2.084-.912-2.907-1.169a8.879 8.879 0 0 0-2.655-.385c-1.636 0-3.5.532-5.589 1.594-.43.215-.74.381-.94.503l-.198-1.455a2.11 2.11 0 0 0 .738-1.598 2.124 2.124 0 1 0-4.25 0c0 .766.41 1.431 1.017 1.805l2.87 21.045a1.25 1.25 0 0 0 2.477-.337L9.845 19.15c2.093-1.038 3.904-1.562 5.427-1.562.646 0 1.277.097 1.891.292.615.195 1.127.407 1.534.637.407.23.887.443 1.44.637.553.195 1.1.292 1.64.292 1.362 0 2.995-.513 4.897-1.54.24-.124.414-.246.525-.365.11-.12.166-.29.166-.51V6.901a.82.82 0 0 0-.251-.597Z" fill="#F0145A"/></svg>