<svg width="524" height="600" fill="none" xmlns="http://www.w3.org/2000/svg"><g clip-path="url(#a)" fill-rule="evenodd" clip-rule="evenodd"><path d="M184.064 255.318h140.403c40.333 0 73.994 17.206 94.924 46.281 20.914 29.076 21.56 77.591 9.364 115.545l-15.593 48.455c-6.512 20.232-37.003 115.915-42.949 134.4h-76.596s1.171 1.026 65.156-197.872c5.65-17.552 8.876-46.044 0-58.366-8.859-12.32-23.809-19.612-43.591-19.612H200.415c-22.535 0-42.506 14.657-49.477 36.305l33.126-105.136Z" fill="url(#b)"/><path d="M74.602 600H-.278C63.454 399.882 127.908 199.998 192.015 0h74.776c-.315 1-.634 2.003-.958 3.009C162.102 322.175 197.486 214.39 74.602 600Z" fill="#F0145A"/></g><defs><linearGradient id="b" x1="391.857" y1="599.999" x2="201.629" y2="388.006" gradientUnits="userSpaceOnUse"><stop stop-color="#F0145A"/><stop offset="1" stop-color="#693264"/></linearGradient><clipPath id="a"><path fill="#fff" d="M0 0h523.404v600H0z"/></clipPath></defs></svg>