<svg width="894" height="1024" fill="none" xmlns="http://www.w3.org/2000/svg"><g clip-path="url(#a)" fill-rule="evenodd" clip-rule="evenodd"><path d="M314.136 435.744h239.621c68.836 0 126.284 29.365 162.004 78.986 35.694 49.623 36.795 132.422 15.98 197.197l-26.612 82.696C694.016 829.152 641.978 992.451 631.83 1024H501.106s1.999 1.75 111.201-337.703c9.642-29.956 15.147-78.581 0-99.61-15.121-21.027-40.636-33.471-74.395-33.471H342.041c-38.46 0-72.542 25.014-84.44 61.959l56.535-179.431Z" fill="url(#b)"/><path d="M127.32 1024H-.474C108.293 682.464 218.294 341.33 327.703 0h127.619a836.323 836.323 0 0 1-1.636 5.135C276.654 549.846 337.042 365.893 127.32 1024Z" fill="#F0145A"/></g><defs><linearGradient id="b" x1="668.77" y1="1024" x2="344.114" y2="662.198" gradientUnits="userSpaceOnUse"><stop stop-color="#F0145A"/><stop offset="1" stop-color="#693264"/></linearGradient><clipPath id="a"><path fill="#fff" d="M0 0h893.277v1024H0z"/></clipPath></defs></svg>